HIERARCHY
ROOT root
{
	OFFSET 0.000000 0.000000 0.000000
	CHANNELS 6 Xposition Yposition Zposition Zrotation Yrotation Xrotation
	JOINT lhip
	{
		OFFSET 0.058581 -0.082280 -0.017664
		CHANNELS 3 Zrotation Yrotation Xrotation
		JOINT lknee
		{
			OFFSET 0.043451 -0.386469 0.008037
			CHANNELS 3 Zrotation Yrotation Xrotation
			JOINT lankle
			{
				OFFSET -0.014790 -0.426874 -0.037428
				CHANNELS 3 Zrotation Yrotation Xrotation
				JOINT ltoe
				{
					OFFSET 0.041054 -0.060286 0.122042
					CHANNELS 3 Zrotation Yrotation Xrotation
					End Site
					{
						OFFSET 0.000000 0.000000 0.000000
					}
				}
			}
		}
	}
	JOINT rhip
	{
		OFFSET -0.060310 -0.090513 -0.013543
		CHANNELS 3 Zrotation Yrotation Xrotation
		JOINT rknee
		{
			OFFSET -0.043257 -0.383688 -0.004843
			CHANNELS 3 Zrotation Yrotation Xrotation
			JOINT rankle
			{
				OFFSET 0.019056 -0.420046 -0.034562
				CHANNELS 3 Zrotation Yrotation Xrotation
				JOINT rtoe
				{
					OFFSET -0.034840 -0.062106 0.130323
					CHANNELS 3 Zrotation Yrotation Xrotation
					End Site
					{
						OFFSET 0.000000 0.000000 0.000000
					}
				}
			}
		}
	}
	JOINT lowerback
	{
		OFFSET 0.004439 0.124404 -0.038385
		CHANNELS 3 Zrotation Yrotation Xrotation
		JOINT upperback
		{
			OFFSET 0.004488 0.137956 0.026820
			CHANNELS 3 Zrotation Yrotation Xrotation
			JOINT chest
			{
				OFFSET -0.002265 0.056032 0.002855
				CHANNELS 3 Zrotation Yrotation Xrotation
				JOINT lowerneck
				{
					OFFSET -0.013390 0.211636 -0.033468
					CHANNELS 3 Zrotation Yrotation Xrotation
					JOINT upperneck
					{
						OFFSET 0.010113 0.088937 0.050410
						CHANNELS 3 Zrotation Yrotation Xrotation
						End Site
						{
							OFFSET 0.000000 0.000000 0.000000
						}
					}
				}
				JOINT lclavicle
				{
					OFFSET 0.071702 0.114000 -0.018898
					CHANNELS 3 Zrotation Yrotation Xrotation
					JOINT lshoulder
					{
						OFFSET 0.122921 0.045205 -0.019046
						CHANNELS 3 Zrotation Yrotation Xrotation
						JOINT lelbow
						{
							OFFSET 0.255332 -0.015649 -0.022946
							CHANNELS 3 Zrotation Yrotation Xrotation
							JOINT lwrist
							{
								OFFSET 0.265709 0.012698 -0.007375
								CHANNELS 3 Zrotation Yrotation Xrotation
								End Site
								{
									OFFSET 0.000000 0.000000 0.000000
								}
							}
						}
					}
				}
				JOINT rclavicle
				{
					OFFSET -0.082954 0.112472 -0.023707
					CHANNELS 3 Zrotation Yrotation Xrotation
					JOINT rshoulder
					{
						OFFSET -0.113228 0.046853 -0.008472
						CHANNELS 3 Zrotation Yrotation Xrotation
						JOINT relbow
						{
							OFFSET -0.260127 -0.014369 -0.031269
							CHANNELS 3 Zrotation Yrotation Xrotation
							JOINT rwrist
							{
								OFFSET -0.269108 0.006794 -0.006027
								CHANNELS 3 Zrotation Yrotation Xrotation
								End Site
								{
									OFFSET 0.000000 0.000000 0.000000
								}
							}
						}
					}
				}
			}
		}
	}
}
MOTION
Frames: 7
Frame Time: 0.033333
0.027429 0.235372 1.011988 90.515204 0.689213 94.495936 5.714693 0.810931 -9.196488 -3.987050 -9.579675 10.504763 -1.100340 11.442550 -7.712523 0.000000 -0.000000 0.000000 -4.185076 -4.744253 -8.662834 0.258201 6.053070 8.141113 5.700535 -9.435657 -5.304721 0.000000 -0.000000 0.000000 1.534370 0.062320 7.359659 -3.698491 -0.237914 -13.553629 0.282323 2.353701 0.471670 -1.094796 17.424441 3.851345 1.446387 26.704734 -8.952497 -5.174459 13.290422 -12.353642 -18.034233 -15.086402 -22.212880 44.780972 -21.182947 -57.415886 15.290965 -6.547953 -44.839789 0.263681 -12.360099 -9.331387 13.206466 10.718857 -19.925423 -30.548589 9.443636 -52.727753 -0.634222 8.505373 -40.959978 
0.026307 0.234575 1.011182 90.637342 0.675794 94.174926 5.745268 0.736850 -9.126219 -4.035502 -9.533343 10.815480 -0.929935 11.298105 -7.780780 0.000000 -0.000000 0.000000 -4.183106 -4.743349 -8.571359 0.255529 5.913425 8.538935 5.506398 -9.368023 -5.447138 0.000000 -0.000000 0.000000 1.513214 0.076214 7.634646 -3.719557 -0.120061 -12.849324 0.151739 2.335753 0.569609 -1.132738 16.989317 4.231437 1.609687 26.452276 -7.908314 -6.548542 13.784757 -11.831234 -19.749356 -15.025372 -21.632395 44.605017 -21.113675 -57.508452 15.490405 -5.963227 -45.469621 1.521862 -12.509528 -8.433517 15.104807 10.191508 -18.950695 -30.194210 8.841385 -52.870482 -0.859395 8.370650 -40.894423 
0.024690 0.234175 1.010481 90.637664 0.775531 94.262965 5.795577 0.969964 -9.820144 -3.555789 -8.385712 11.867457 -1.762009 9.278788 -9.262235 0.000000 -0.000000 0.000000 -3.815389 -4.858589 -9.299602 -0.461615 5.058127 9.591092 7.112569 -7.447078 -6.421974 0.000000 -0.000000 0.000000 1.662659 0.068890 7.362049 -3.662167 0.245781 -11.229195 -0.155230 2.172734 -0.190620 -0.182366 17.117480 4.153846 0.936112 24.497368 -5.941881 -8.807143 14.908977 -13.273630 -20.458175 -15.528989 -19.663021 42.990724 -19.723810 -59.615427 13.052515 -9.172805 -40.886424 3.508639 -12.970402 -8.849328 16.213392 10.449580 -16.405799 -29.627722 7.125795 -56.709861 0.030371 6.527869 -32.579905 
0.023553 0.233894 1.009762 90.800577 0.741581 94.026006 5.813255 0.939396 -9.852548 -3.652276 -8.402675 12.214587 -1.684085 9.248906 -9.313095 0.000000 -0.000000 0.000000 -3.833531 -4.833204 -9.206793 -0.486101 4.926809 9.806274 6.828878 -7.392079 -6.550754 0.000000 -0.000000 0.000000 1.587926 0.125635 7.796620 -3.638303 0.308772 -10.874951 -0.356526 2.009691 -0.287403 0.135259 15.810420 4.673185 1.483374 23.169214 -4.016455 -10.564745 15.078147 -12.484510 -21.537950 -14.803457 -18.829515 42.609624 -19.510097 -58.714770 12.095345 -9.449737 -40.581244 5.144456 -12.836715 -8.213812 17.691385 9.676555 -15.406678 -28.701099 6.645145 -55.992084 0.637005 6.578411 -32.493220 
0.022609 0.233764 1.008950 90.868272 0.683679 93.774150 5.745428 0.831634 -9.804822 -3.705180 -8.542827 12.465173 -1.654955 9.410598 -9.376427 0.000000 -0.000000 0.000000 -3.918500 -4.881276 -9.149297 -0.455090 4.859874 10.119568 6.692449 -7.414933 -6.668283 0.000000 -0.000000 0.000000 1.587751 0.221218 8.068643 -3.698566 0.428303 -10.270953 -0.607256 1.916474 -0.207630 0.175893 13.942160 4.770478 2.094059 21.214074 -2.633670 -12.275777 15.478275 -12.118130 -22.682059 -14.589909 -18.016779 41.796780 -19.195203 -58.662001 12.593825 -8.875712 -40.694666 6.818144 -12.941689 -7.775589 19.264010 8.889366 -14.167274 -27.663258 6.440060 -55.258189 0.633933 6.351103 -32.049956 
0.021506 0.233494 1.008438 90.944498 0.660613 93.568148 5.758221 0.662033 -9.793401 -3.741454 -8.435559 12.647602 -1.714036 9.441643 -9.422130 0.000000 -0.000000 0.000000 -3.973802 -4.762570 -9.080033 -0.448676 4.604866 10.330588 6.556921 -7.477515 -6.691098 0.000000 -0.000000 0.000000 1.513424 0.239728 8.416258 -3.692422 0.594103 -9.572260 -0.743326 1.812933 -0.246123 0.252305 11.701966 4.776643 2.334996 18.918366 -1.935569 -14.199374 15.985752 -11.652484 -23.900499 -14.063556 -17.146822 41.126636 -18.913456 -57.388101 11.291974 -9.816165 -40.836062 8.572678 -12.788389 -7.088974 20.425144 8.116556 -13.127177 -26.435546 5.807321 -53.944935 1.210361 6.527222 -31.106729 
0.020669 0.233279 1.008030 91.061675 0.670923 93.454577 5.767388 0.622856 -9.906777 -3.805706 -8.534131 12.867355 -1.702259 9.475552 -9.356296 0.000000 -0.000000 0.000000 -3.945914 -4.762003 -9.088552 -0.439622 4.643253 10.490246 6.307003 -7.645192 -6.752739 0.000000 -0.000000 0.000000 1.527564 0.210653 8.527576 -3.706704 0.669356 -8.817001 -0.918523 1.557992 -0.031607 0.266457 9.530882 4.393678 2.411369 17.098507 -1.876134 -16.217292 16.576345 -11.292590 -25.009788 -13.476091 -16.416549 40.669324 -18.824970 -56.834224 11.257287 -9.274323 -40.736014 10.366350 -12.690203 -6.863904 21.668817 7.681004 -12.011223 -25.124643 5.299751 -52.926028 1.241388 6.415031 -29.455911 
